<?xml version="1.0" encoding="utf-8"?>
<svg viewBox="113.8383 115.1214 255.6937 254.236" xmlns="http://www.w3.org/2000/svg">
  <g transform="matrix(0.10000000149011612, 0, 0, -0.10000000149011612, 113.69148254394531, 370.2697448730469)" fill="#77a345" stroke="none">
    <path d="M1065 2545 c-283 -50 -540 -189 -725 -393 -298 -327 -408 -776 -295&#10;-1200 33 -125 68 -199 100 -214 34 -15 75 -1 95 34 14 25 13 34 -18 120 -46&#10;134 -61 208 -68 333 -30 514 303 989 797 1139 47 14 90 26 97 26 8 0 12 -23&#10;12 -74 l0 -74 -67 -22 c-430 -137 -714 -541 -689 -980 7 -126 28 -219 53 -237&#10;28 -21 83 -12 105 17 18 25 18 29 2 120 -38 218 10 434 136 620 l42 62 56 -55&#10;55 -55 -26 -33 c-31 -42 -84 -148 -87 -174 -6 -57 21 -95 68 -95 36 0 59 26&#10;102 114 60 125 188 229 334 271 91 26 241 17 326 -19 36 -16 81 -31 101 -33&#10;36 -5 39 -2 124 96 69 79 91 98 104 91 9 -5 45 -38 81 -74 73 -75 109 -85 148&#10;-43 33 35 28 70 -15 119 -123 136 -252 222 -418 279 l-80 27 -3 76 -3 77 28&#10;-7 c267 -62 521 -237 680 -471 62 -90 76 -103 114 -103 28 0 69 44 69 74 0 14&#10;-27 64 -59 113 -183 271 -450 455 -776 534 -105 25 -159 25 -185 -1 -19 -19&#10;-20 -33 -20 -205 0 -171 2 -187 20 -205 11 -11 30 -22 42 -24 13 -3 47 -10 76&#10;-16 58 -11 152 -48 152 -59 0 -4 -21 -31 -47 -60 l-48 -53 -65 22 c-81 28&#10;-251 38 -343 20 -80 -16 -168 -51 -236 -96 l-54 -36 -54 55 -55 54 69 46 c80&#10;53 191 100 289 122 104 24 104 23 104 234 -1 128 -4 181 -14 193 -22 30 -57&#10;36 -131 23z"/>
    <path d="M1180 1645 c-112 -31 -208 -120 -250 -232 -31 -82 -25 -215 13 -289&#10;71 -138 189 -212 247 -154 11 11 20 33 20 50 0 31 -15 50 -78 98 -77 57 -96&#10;204 -39 290 86 130 288 130 374 0 22 -32 28 -56 31 -109 5 -80 -17 -137 -73&#10;-188 -45 -41 -54 -75 -28 -109 14 -19 31 -28 56 -30 31 -3 43 3 82 39 26 24&#10;59 70 78 108 43 88 50 206 18 292 -40 106 -122 189 -221 224 -66 24 -165 28&#10;-230 10z"/>
    <path d="M2335 1609 c-163 -83 -225 -119 -227 -132 0 -7 -2 -82 -2 -169 -1&#10;-86 -4 -160 -8 -163 -4 -4 -38 0 -76 10 l-69 18 4 86 c8 141 -40 316 -93 340&#10;-35 16 -48 14 -78 -10 -32 -25 -33 -55 -5 -135 27 -78 35 -185 19 -268 -21&#10;-115 -12 -126 149 -167 51 -13 95 -29 98 -35 5 -15 -38 -101 -87 -174 -38 -55&#10;-171 -189 -209 -209 -18 -10 -24 -5 -56 50 l-36 61 66 62 c36 33 65 69 65 78&#10;0 51 -51 95 -94 82 -11 -4 -41 -25 -66 -46 -121 -107 -313 -155 -475 -118&#10;-122 27 -259 126 -322 231 -18 30 -44 86 -58 124 -35 97 -72 119 -129 74 -34&#10;-27 -34 -70 0 -157 81 -205 261 -363 473 -417 89 -23 247 -21 334 4 l68 19 25&#10;-40 c30 -48 49 -87 43 -92 -2 -2 -35 -14 -74 -27 -50 -17 -73 -31 -84 -50 -19&#10;-33 -8 -74 25 -96 25 -16 30 -16 93 0 86 23 230 93 310 152 l64 47 51 -52 51&#10;-51 -43 -38 c-110 -96 -301 -185 -477 -223 -116 -24 -308 -26 -426 -4 -213 40&#10;-412 140 -573 288 l-70 64 67 37 67 38 87 -71 c104 -85 278 -176 315 -165 37&#10;12 58 36 58 67 0 44 -14 62 -62 83 -94 41 -183 100 -264 177 -78 73 -89 80&#10;-117 75 -41 -7 -297 -142 -319 -169 -33 -37 -23 -72 42 -147 190 -221 462&#10;-376 749 -427 113 -20 331 -20 446 1 711 126 1178 825 1024 1534 -12 57 -45&#10;101 -76 101 -10 0 -63 -23 -118 -51z m72 -265 c10 -195 -28 -378 -117 -559&#10;-47 -95 -141 -235 -158 -235 -4 0 -29 22 -55 48 l-47 48 56 85 c118 174 166&#10;329 168 535 l1 131 65 35 c36 19 69 31 73 27 5 -3 11 -55 14 -115z"/>
  </g>
  <g transform="matrix(0.033274997026, 0.029713004827, 0.03500900045, -0.039204999804, -1029.696681042443, -1066.721348603581)" fill="#20214f" stroke="none" style="transform-origin: 1280.250001px 1279.703311px;">
    <path d="M1130 2511 c-75 -24 -116 -47 -174 -95 -104 -86 -169 -205 -182 -330&#10;l-7 -66 513 0 513 0 -7 66 c-9 86 -38 161 -90 231 -73 100 -162 163 -275 197&#10;-74 22 -219 20 -291 -3z"/>
    <path d="M188 2093 c-33 -36 -40 -69 -24 -107 8 -17 77 -94 155 -171 l141&#10;-140 0 -237 0 -238 -197 0 c-173 0 -201 -3 -219 -18 -54 -43 -58 -100 -10&#10;-148 l34 -34 194 0 194 0 12 -112 c12 -111 33 -202 67 -286 18 -43 18 -43 -7&#10;-70 -56 -62 -266 -300 -291 -330 -61 -75 -19 -172 74 -172 47 0 61 13 249 228&#10;l115 131 30 -24 c129 -104 324 -185 447 -185 l28 0 0 715 0 715 100 0 100 0 0&#10;-715 0 -715 33 0 c99 0 282 70 402 153 l50 35 171 -169 c167 -165 172 -169&#10;213 -169 60 0 101 41 101 101 0 42 -3 46 -179 223 -179 180 -180 181 -165 208&#10;37 69 74 209 85 321 l12 117 194 0 195 0 34 34 c39 39 44 77 17 116 -33 49&#10;-37 49 -245 50 l-198 0 0 237 0 237 150 151 c106 107 150 159 151 176 2 47 -3&#10;64 -29 92 -20 21 -35 27 -70 27 -44 0 -46 -2 -196 -150 l-152 -150 -674 0&#10;-674 0 -152 150 c-150 148 -152 150 -196 150 -35 0 -49 -5 -70 -27z"/>
  </g>
</svg>